<svg height="512pt" viewBox="-6 0 512 512.00064" width="512pt" xmlns="http://www.w3.org/2000/svg"><path d="m80.632812 156.910156c8.050782 6.503906 11.203126 15.460938 9.921876 28.1875-.417969 4.121094 1.753906 8.074219 5.457031 9.933594 1.421875.714844 2.960937 1.0625 4.484375 1.0625 2.445312 0 4.863281-.894531 6.746094-2.613281 8.992187-8.21875 18.625-11.816407 29.453124-10.992188 3.957032.292969 7.707032-1.761719 9.574219-5.257812 1.867188-3.496094 1.492188-7.761719-.953125-10.878907-8.929687-11.375-12.816406-21.199218-11.546875-29.203124.699219-4.433594-1.640625-8.789063-5.71875-10.65625-4.078125-1.863282-8.902343-.78125-11.796875 2.648437-6.285156 7.457031-15.703125 10.726563-28.796875 10.015625-4.339843-.25-8.316406 2.34375-9.875 6.390625-1.554687 4.046875-.324219 8.640625 3.050781 11.363281zm35.144532-2.738281c1.039062 3.246094 2.433594 6.542969 4.191406 9.902344-3.542969.898437-7.003906 2.160156-10.371094 3.777343-.78125-3.648437-1.941406-7.089843-3.472656-10.316406 3.417969-.824218 6.636719-1.945312 9.652344-3.363281zm0 0"/><path d="m490.714844 8.621094c-5.84375-5.679688-13.554688-8.757813-21.765625-8.61718775-8.203125.12499975-15.851563 3.42187475-21.535157 9.28515575l-160.308593 165.5-18.957031-18.351562c-2.339844-2.265625-5.640626-3.25-8.835938-2.632812-3.199219.613281-5.898438 2.75-7.234375 5.71875l-16.664063 37.085937-2.488281-2.40625c-11.507812-11.15625-29.957031-10.871094-41.144531.65625-5.398438 5.582031-8.292969 12.957031-8.152344 20.757813.042969 2.386718.375 4.71875.964844 6.964843-15.6875 1.222657-33.144531 5.128907-51.65625 11.597657-1.457031-5.105469-1.886719-9.921876-1.265625-14.429688.609375-4.445312-1.816406-8.753906-5.9375-10.535156-4.117187-1.78125-8.921875-.597656-11.742187 2.894531-9.214844 11.410156-23.050782 16.632813-42.304688 15.964844-4.3125-.15625-8.265625 2.507812-9.742188 6.582031-1.476562 4.074219-.160156 8.636719 3.261719 11.296875 5.085938 3.957031 8.9375 8.652344 11.609375 14.117187-28.183594 16.054688-54.195312 35.464844-73.902344 55.242188-1.886718 1.894531-2.9374995 4.46875-2.914062 7.144531s1.121094 5.234375 3.042969 7.09375l92.824219 89.828125h.003906v.003906l42.90625 41.519532c.007812.011718.019531.023437.03125.035156.011718.007812.023437.019531.035156.03125l49.828125 48.21875c1.867187 1.804688 4.359375 2.8125 6.949219 2.8125.078125 0 .152344 0 .230468-.003906 2.671876-.058594 5.210938-1.191406 7.042969-3.132813 42.351563-44.929687 84.132813-124.042969 86.875-184.492187 2.167969.503906 4.378907.753906 6.59375.753906 7.613281 0 15.21875-2.960938 20.914063-8.851562 5.378906-5.566407 8.277344-12.914063 8.152344-20.683594-.125-7.789063-3.265626-15.046875-8.84375-20.429688l-2.492188-2.414062 36.839844-17.335938c2.96875-1.398437 5.0625-4.164062 5.601562-7.402344.539063-3.238281-.546875-6.539062-2.90625-8.820312l-22.542968-21.820312 38.996093-40.273438c3.839844-3.964844 3.738281-10.292969-.230469-14.132812-3.964843-3.839844-10.292968-3.734376-14.132812.230468l-38.992188 40.273438-15.261718-14.769532 160.308594-165.496093c1.960937-2.027344 4.617187-3.164063 7.476562-3.207031 2.859375-.03125 5.523438 1.007812 7.546875 2.976562 2.023437 1.957031 3.160156 4.601562 3.210937 7.449219.046876 2.839843-1.003906 5.511719-2.964843 7.539062l-67.5 69.90625c-3.835938 3.96875-3.726563 10.296875.246093 14.132813 3.96875 3.835937 10.296876 3.722656 14.132813-.246094l67.488281-69.894531c5.671875-5.851563 8.722656-13.585938 8.585938-21.773438-.140625-8.179687-3.4375-15.804687-9.28125-21.460937zm-377.339844 230.074218c1.863281 6.953126 5.046875 14.078126 9.5625 21.4375-7.878906 1.597657-15.421875 4.515626-22.601562 8.742188-1.335938-8.25-4.035157-15.710938-8.085938-22.347656 7.8125-1.523438 14.859375-4.136719 21.125-7.832032zm81.765625 248.929688-35.238281-34.097656 50.53125-52.144532c3.839844-3.964843 3.738281-10.292968-.226563-14.136718-3.960937-3.839844-10.289062-3.738282-14.132812.222656l-50.535157 52.15625-28.578124-27.65625 19.5625-20.199219c3.839843-3.964843 3.734374-10.292969-.230469-14.136719-3.960938-3.839843-10.292969-3.734374-14.132813.230469l-19.566406 20.203125-28.601562-27.679687 50.53125-52.148438c3.839843-3.964843 3.742187-10.292969-.222657-14.136719-3.964843-3.839843-10.292969-3.738281-14.136719.222657l-50.539062 52.160156-35.238281-34.101563c16.058593-14.835937 35.710937-29.261718 56.914062-41.808593.035157 2.277343-.039062 4.628906-.238281 7.078125-.335938 4.128906 1.914062 8.042968 5.652344 9.828125 1.375.65625 2.847656.976562 4.308594.976562 2.511718 0 4.992187-.949219 6.890624-2.757812 12.921876-12.296875 26.984376-17.835938 42.972657-16.929688 3.949219.222657 7.675781-1.917969 9.476562-5.453125 1.796875-3.535156 1.332031-7.796875-1.183593-10.863281-2.847657-3.472656-5.332032-6.855469-7.496094-10.15625 21.503906-7.3125 41.054687-10.761719 57.25-10.070313l70.71875 68.457032c3.941406 51.648437-33.746094 129.839844-74.511719 176.941406zm107.765625-185.246094c-3.484375 3.605469-9.257812 3.699219-12.863281.21875l-83.6875-81.007812c-1.722657-1.65625-2.691407-3.90625-2.738281-6.335938-.042969-2.453125.859374-4.761718 2.527343-6.488281 1.785157-1.84375 4.164063-2.765625 6.546875-2.765625 2.28125 0 4.5625.847656 6.324219 2.554688 0 .003906.003906.003906.003906.007812l45.875 44.390625 24.886719 24.09375c.050781.050781.109375.09375.164062.144531l12.75 12.339844c1.734376 1.671875 2.710938 3.9375 2.75 6.375.039063 2.441406-.863281 4.738281-2.539062 6.472656zm-4.171875-44.5-19.382813-18.753906-28.65625-27.746094 13.78125-30.671875 15.605469 15.105469c.09375.101562.183594.207031.285157.304688l28.421874 27.484374 20.539063 19.878907zm0 0"/><path d="m383.328125 134.257812-.140625.144532c-3.910156 3.894531-3.921875 10.222656-.023438 14.132812 1.953126 1.960938 4.515626 2.941406 7.078126 2.941406 2.550781 0 5.105468-.972656 7.054687-2.914062l.144531-.144531c3.910156-3.894531 3.917969-10.222657.023438-14.132813-3.898438-3.910156-10.226563-3.921875-14.136719-.027344zm0 0"/></svg>