<?xml version="1.0"?>
<svg xmlns="http://www.w3.org/2000/svg" xmlns:xlink="http://www.w3.org/1999/xlink" width="512" height="512" viewBox="0 0 512 512"><defs><linearGradient id="a" data-name="New Gradient Swatch 1" x1="74.718" y1="532.783" x2="515.32" y2="92.181" gradientUnits="userSpaceOnUse"><stop offset="0" stop-color="#003f8a"/><stop offset="0.518" stop-color="#00d7df"/><stop offset="1" stop-color="#006df0"/></linearGradient><linearGradient id="b" x1="110.967" y1="569.033" x2="551.57" y2="128.43" xlink:href="#a"/><linearGradient id="c" x1="130.967" y1="589.033" x2="571.57" y2="148.43" xlink:href="#a"/><linearGradient id="d" x1="16.14" y1="474.206" x2="456.742" y2="33.603" xlink:href="#a"/></defs><g><path d="M496,384c-11.12,0-16.17-3.03-22.55-6.86-7.15-4.28-15.24-9.14-30.79-9.14s-23.64,4.86-30.78,9.14c-6.39,3.83-11.44,6.86-22.56,6.86a48.907,48.907,0,0,1-5.84-.33l31.9-76.59A7.991,7.991,0,0,0,408,296H372.23l-13.89-20.41c-.03-.04-.06-.09-.09-.13L325.61,227.5A7.989,7.989,0,0,0,319,224H228l-21.6-28.8A8.009,8.009,0,0,0,200,192H128a8.005,8.005,0,0,0-7.82,9.71L125.06,224H95a8,8,0,0,0-7.95,7.12L79.84,296H56a8,8,0,0,0-8,8v64a41.77,41.77,0,0,0,1.39,10.68c-.86-.49-1.72-1.01-2.61-1.54C39.64,372.86,31.55,368,16,368a8,8,0,0,0,0,16c11.12,0,16.16,3.03,22.55,6.86,6.51,3.9,13.83,8.27,26.84,9.02.14.01.29.02.44.02,1.13.06,2.29.1,3.5.1,15.55,0,23.64-4.86,30.78-9.14,6.39-3.83,11.44-6.86,22.55-6.86s16.17,3.03,22.55,6.86c7.14,4.28,15.24,9.14,30.79,9.14s23.64-4.86,30.78-9.14c6.39-3.83,11.43-6.86,22.55-6.86s16.16,3.03,22.55,6.86c7.14,4.28,15.23,9.14,30.78,9.14s23.64-4.86,30.78-9.14c6.39-3.83,11.43-6.86,22.55-6.86s16.16,3.03,22.55,6.86c7.14,4.28,15.23,9.14,30.78,9.14s23.65-4.86,30.79-9.14c6.39-3.83,11.43-6.86,22.55-6.86s16.17,3.03,22.55,6.86c7.15,4.28,15.24,9.14,30.79,9.14a8,8,0,0,0,0-16ZM331.1,264l5.45,8H264v-8ZM196,208l12,16H141.44l-3.5-16Zm-93.84,32H314.77l5.44,8H168a8,8,0,0,0-8,8v24a8,8,0,0,0,8,8H347.43l5.45,8H95.94ZM248,264v8H224v-8Zm-40,0v8H184v-8ZM366.77,377.14c-7.14-4.28-15.23-9.14-30.78-9.14s-23.64,4.86-30.78,9.14c-6.39,3.83-11.43,6.86-22.55,6.86s-16.16-3.03-22.55-6.86c-7.14-4.28-15.23-9.14-30.78-9.14s-23.65,4.86-30.79,9.14C192.16,380.97,187.11,384,176,384s-16.17-3.03-22.55-6.86c-7.14-4.28-15.24-9.14-30.79-9.14s-23.64,4.86-30.78,9.14c-6.32,3.79-11.33,6.79-22.2,6.85A24.879,24.879,0,0,1,64,368V312H396l-27.55,66.14C367.9,377.81,367.34,377.48,366.77,377.14Z" fill="url(#a)"/><path d="M496,424c-11.119,0-16.166-3.027-22.555-6.86-7.14-4.285-15.234-9.14-30.784-9.14s-23.644,4.855-30.785,9.14c-6.389,3.833-11.436,6.86-22.554,6.86s-16.162-3.027-22.55-6.86c-7.14-4.285-15.233-9.14-30.782-9.14s-23.641,4.855-30.782,9.14c-6.388,3.833-11.433,6.86-22.551,6.86s-16.161-3.027-22.549-6.859c-7.14-4.286-15.233-9.141-30.782-9.141s-23.641,4.855-30.781,9.141C192.157,420.973,187.112,424,176,424s-16.162-3.027-22.55-6.859c-7.14-4.286-15.233-9.141-30.783-9.141s-23.641,4.855-30.781,9.14c-6.388,3.833-11.433,6.86-22.55,6.86s-16.162-3.027-22.55-6.86C39.642,412.855,31.549,408,16,408a8,8,0,0,0,0,16c11.117,0,16.162,3.027,22.55,6.86,7.14,4.285,15.233,9.14,30.782,9.14s23.642-4.855,30.782-9.141C106.5,427.027,111.547,424,122.663,424s16.163,3.027,22.551,6.86c7.14,4.285,15.233,9.14,30.782,9.14s23.642-4.855,30.781-9.141c6.388-3.832,11.433-6.859,22.549-6.859s16.162,3.027,22.55,6.86c7.141,4.285,15.233,9.14,30.781,9.14s23.643-4.855,30.783-9.141c6.388-3.832,11.433-6.859,22.55-6.859s16.162,3.027,22.55,6.86c7.141,4.285,15.233,9.14,30.782,9.14s23.644-4.855,30.784-9.14c6.389-3.833,11.436-6.86,22.555-6.86s16.165,3.027,22.553,6.86C472.355,435.145,480.449,440,496,440a8,8,0,0,0,0-16Z" fill="url(#b)"/><path d="M496,464c-11.119,0-16.166-3.027-22.555-6.86-7.14-4.285-15.234-9.14-30.784-9.14s-23.644,4.855-30.785,9.14c-6.389,3.833-11.436,6.86-22.554,6.86s-16.162-3.027-22.55-6.86c-7.14-4.285-15.233-9.14-30.782-9.14s-23.641,4.855-30.782,9.14c-6.388,3.833-11.433,6.86-22.551,6.86s-16.161-3.027-22.549-6.859c-7.14-4.286-15.233-9.141-30.782-9.141s-23.641,4.855-30.781,9.141C192.157,460.973,187.112,464,176,464s-16.162-3.027-22.55-6.859c-7.14-4.286-15.233-9.141-30.783-9.141s-23.641,4.855-30.781,9.14c-6.388,3.833-11.433,6.86-22.55,6.86s-16.162-3.027-22.55-6.86C39.642,452.855,31.549,448,16,448a8,8,0,0,0,0,16c11.117,0,16.162,3.027,22.55,6.86,7.14,4.285,15.233,9.14,30.782,9.14s23.642-4.855,30.782-9.141C106.5,467.027,111.547,464,122.663,464s16.163,3.027,22.551,6.86c7.14,4.285,15.233,9.14,30.782,9.14s23.642-4.855,30.781-9.141c6.388-3.832,11.433-6.859,22.549-6.859s16.162,3.027,22.55,6.86c7.141,4.285,15.233,9.14,30.781,9.14s23.643-4.855,30.783-9.141c6.388-3.832,11.433-6.859,22.55-6.859s16.162,3.027,22.55,6.86c7.141,4.285,15.233,9.14,30.782,9.14s23.644-4.855,30.784-9.14c6.389-3.833,11.436-6.86,22.555-6.86s16.165,3.027,22.553,6.86C472.355,475.145,480.449,480,496,480a8,8,0,0,0,0-16Z" fill="url(#c)"/><path d="M336,152H440a40,40,0,0,0,4.685-79.727A60.022,60.022,0,0,0,339.876,56.158C338.585,56.053,337.29,56,336,56a48,48,0,0,0,0,96Zm0-80a32.149,32.149,0,0,1,6.172.6,8,8,0,0,0,8.349-3.654,44.006,44.006,0,0,1,80.3,12.916,8.012,8.012,0,0,0,8.135,6.16c.345-.015.7-.023,1.042-.023a24,24,0,0,1,0,48H336a32,32,0,0,1,0-64Z" fill="url(#d)"/></g></svg>
