<?xml version="1.0" standalone="no"?>
<!DOCTYPE svg PUBLIC "-//W3C//DTD SVG 20010904//EN"
 "http://www.w3.org/TR/2001/REC-SVG-20010904/DTD/svg10.dtd">
<svg version="1.0" xmlns="http://www.w3.org/2000/svg"
 width="512.000000pt" height="512.000000pt" viewBox="0 0 512.000000 512.000000"
 preserveAspectRatio="xMidYMid meet">
<metadata>
Created by potrace 1.11, written by Peter Selinger 2001-2013
</metadata>
<g transform="translate(0.000000,512.000000) scale(0.100000,-0.100000)"
fill="#000000" stroke="none">
<path d="M3734 4780 c-114 -29 -193 -75 -284 -163 -54 -53 -56 -55 -127 -61
-244 -20 -430 -211 -439 -451 -4 -99 7 -151 51 -240 41 -84 114 -161 194 -204
112 -59 113 -59 738 -60 359 -1 589 3 618 9 103 23 188 82 248 172 86 131 87
300 2 433 -56 88 -131 142 -235 170 -42 11 -48 18 -85 84 -22 39 -55 90 -74
114 -140 173 -387 253 -607 197z m261 -157 c80 -24 137 -58 194 -114 53 -52
103 -137 116 -196 9 -43 48 -73 95 -73 106 0 208 -82 231 -186 28 -126 -43
-247 -167 -284 -28 -8 -203 -10 -609 -8 l-570 3 -56 26 c-73 35 -123 84 -157
156 -23 49 -27 71 -26 138 1 95 26 158 89 220 66 67 123 88 240 90 l99 2 36
44 c82 103 159 157 260 184 61 17 164 15 225 -2z"/>
<path d="M1230 3180 c-35 -35 -35 -52 5 -230 2 -8 6 -27 10 -42 l7 -28 -166 0
-167 0 -24 -26 c-14 -15 -25 -39 -26 -53 0 -14 -2 -35 -4 -46 -2 -11 -7 -50
-10 -88 -4 -38 -8 -76 -10 -85 -3 -15 -14 -114 -20 -182 -4 -34 -18 -160 -21
-185 -1 -11 -3 -28 -3 -37 -1 -16 -14 -18 -136 -18 -135 0 -136 0 -161 -27
l-25 -27 3 -383 c2 -211 2 -383 0 -383 -1 0 -19 10 -40 23 -73 46 -133 64
-242 73 -60 6 -67 4 -93 -19 -29 -28 -33 -50 -17 -92 11 -29 35 -40 105 -48
80 -8 104 -17 205 -73 108 -61 185 -82 295 -82 120 0 191 21 315 95 81 48 141
63 235 59 85 -4 136 -20 224 -74 87 -53 142 -70 261 -79 115 -8 178 8 329 84
l135 68 90 1 c102 1 150 -13 249 -73 82 -50 156 -73 256 -80 121 -8 211 13
323 76 112 63 138 72 225 78 91 6 150 -10 268 -76 113 -63 189 -82 315 -77
101 5 178 26 246 68 97 61 156 81 241 84 99 4 150 -10 244 -65 99 -57 172 -81
260 -88 76 -5 78 -5 104 23 52 56 13 134 -66 134 -49 0 -41 -1 -98 15 -26 8
-84 35 -127 59 -122 69 -162 80 -294 80 -126 0 -188 -14 -270 -63 -98 -59
-162 -83 -235 -88 -43 -3 -75 -1 -78 4 -4 6 8 46 27 89 18 44 55 131 81 194
26 63 53 129 60 145 8 17 30 71 50 120 20 50 45 108 55 130 37 83 43 111 33
141 -16 48 -40 54 -244 54 l-186 0 -109 160 c-370 545 -372 547 -397 554 -12
3 -228 6 -479 6 l-458 0 -115 154 c-70 93 -125 156 -138 160 -12 3 -192 6
-399 6 -363 0 -379 -1 -398 -20z m790 -220 l61 -80 -334 0 -333 0 -12 58 c-7
31 -15 67 -18 80 l-6 22 290 0 291 0 61 -80z m1153 -277 l24 -38 -779 -5 -779
-5 -20 -25 c-18 -23 -19 -39 -17 -177 3 -131 6 -155 21 -170 17 -17 71 -18
935 -21 l917 -3 27 -39 28 -40 -1285 0 -1286 0 6 43 c3 23 7 62 9 87 3 25 7
65 10 90 6 44 7 61 22 200 4 36 8 72 10 80 1 8 3 25 3 38 l1 22 1065 0 1065 0
23 -37z m-1093 -243 l0 -40 -120 0 -120 0 0 40 0 40 120 0 120 0 0 -40z m400
0 l0 -40 -120 0 -120 0 0 40 0 40 120 0 120 0 0 -40z m854 6 c14 -19 26 -37
26 -40 0 -3 -162 -6 -360 -6 l-360 0 0 40 0 40 334 0 334 0 26 -34z m624 -453
c-19 -40 -33 -74 -73 -173 -26 -63 -52 -128 -60 -145 -7 -16 -25 -59 -40 -95
-14 -36 -32 -78 -40 -95 -7 -16 -23 -55 -36 -85 -12 -30 -23 -56 -24 -57 -1
-2 -28 11 -59 28 -85 46 -140 61 -246 65 -124 4 -184 -12 -333 -89 l-119 -62
-101 1 c-110 0 -125 5 -272 87 -76 42 -132 58 -222 64 -106 7 -200 -12 -294
-60 -45 -23 -102 -53 -128 -66 -35 -18 -66 -24 -128 -27 -99 -4 -155 11 -253
67 -108 63 -163 80 -272 85 -142 6 -213 -13 -349 -93 -63 -38 -104 -52 -169
-59 -45 -5 -46 -5 -70 38 -25 43 -25 44 -28 361 l-3 317 1661 0 c914 0 1660
-3 1658 -7z"/>
<path d="M111 1021 c-27 -27 -35 -60 -22 -94 12 -32 35 -42 111 -50 70 -8 105
-21 210 -79 108 -60 186 -78 310 -74 108 4 162 20 265 78 100 57 130 68 205
74 91 8 163 -9 255 -61 129 -74 175 -88 298 -91 132 -3 178 10 335 92 l113 59
97 0 c107 0 140 -10 251 -75 97 -56 153 -72 261 -76 124 -4 202 14 310 74 114
63 164 79 243 80 92 0 138 -13 247 -75 119 -66 207 -87 330 -80 97 7 166 28
260 82 95 54 128 66 200 72 90 8 164 -10 253 -61 118 -67 156 -81 268 -92 94
-10 147 35 123 105 -12 32 -43 47 -114 55 -70 7 -105 20 -212 79 -108 59 -200
81 -313 73 -110 -7 -129 -12 -209 -53 -178 -91 -186 -94 -254 -100 -93 -8
-165 10 -258 63 -131 74 -182 89 -309 89 -60 -1 -122 -4 -136 -7 -41 -10 -129
-50 -189 -86 -74 -44 -145 -64 -224 -61 -77 3 -137 22 -225 74 -98 58 -163 77
-271 81 -124 4 -202 -14 -311 -75 -125 -69 -164 -81 -267 -77 -85 3 -90 4
-217 70 -148 76 -211 91 -340 82 -95 -7 -174 -32 -256 -81 -96 -59 -151 -74
-250 -71 -90 3 -119 14 -259 91 -65 36 -135 56 -217 62 -63 4 -73 3 -92 -16z"/>
<path d="M108 617 c-30 -28 -34 -50 -18 -91 12 -33 33 -42 113 -50 71 -7 95
-16 207 -78 103 -58 153 -71 265 -72 133 -1 172 7 258 51 207 106 182 98 294
98 l103 0 120 -63 c144 -75 202 -91 317 -90 110 2 183 23 298 87 107 60 162
75 258 68 76 -6 122 -23 244 -91 166 -92 363 -88 543 12 135 74 137 75 245 76
108 1 153 -13 255 -76 81 -51 147 -70 255 -74 125 -4 189 10 297 67 46 23 101
52 122 63 48 24 178 30 248 12 25 -7 79 -32 120 -55 95 -55 176 -82 265 -88
70 -4 74 -3 99 24 21 22 25 34 20 62 -8 50 -25 61 -102 71 -84 11 -118 23
-214 77 -122 68 -159 77 -295 77 -138 -1 -176 -11 -296 -80 -166 -96 -296 -99
-452 -10 -132 75 -169 87 -303 92 -122 4 -176 -10 -322 -87 l-123 -64 -102 1
c-110 0 -126 5 -272 86 -76 43 -132 59 -221 65 -129 10 -236 -20 -379 -106
-81 -48 -211 -63 -305 -35 -25 7 -86 36 -136 64 -110 61 -195 82 -321 76 -99
-4 -174 -27 -261 -80 -93 -55 -131 -68 -217 -71 -99 -4 -153 10 -244 63 -100
57 -173 82 -261 89 -70 5 -77 3 -102 -20z"/>
</g>
</svg>
